<svg width="54" height="50" viewBox="0 0 54 50" fill="none" xmlns="http://www.w3.org/2000/svg">
<path d="M13.1714 21.4243V25.5562C13.1713 25.8623 13.0732 26.1604 12.8913 26.4066C12.7094 26.6528 12.4534 26.8343 12.1609 26.9244L5.88735 28.855C5.3021 29.0352 4.79001 29.3982 4.42626 29.8908C4.0625 30.3834 3.86624 30.9796 3.86627 31.592V42.0041C3.86618 42.4742 3.95871 42.9397 4.13856 43.374C4.31841 43.8083 4.58206 44.2029 4.91446 44.5353C5.24686 44.8677 5.64148 45.1313 6.0758 45.3112C6.51011 45.491 6.9756 45.5836 7.44568 45.5835H28.0241V21.4243H13.1714Z" fill="white"/>
<path d="M18.1819 32.1578C16.5326 32.1537 14.9107 31.7356 13.4651 30.9417C12.0195 30.1478 10.7964 29.0036 9.90802 27.614L5.88998 28.8516C5.30478 29.0316 4.79271 29.3945 4.42895 29.887C4.06519 30.3795 3.8689 30.9756 3.8689 31.5879V42C3.8689 42.47 3.96148 42.9355 4.14136 43.3697C4.32125 43.804 4.5849 44.1986 4.91728 44.531C5.24966 44.8634 5.64425 45.127 6.07853 45.3069C6.5128 45.4868 6.97825 45.5794 7.44831 45.5794H28.0241V22.3156C28.0163 24.9235 26.9768 27.4224 25.1328 29.2665C23.2887 31.1105 20.7898 32.15 18.1819 32.1578Z" fill="#D23939"/>
<path d="M28.0247 22.3162C28.0273 24.4437 27.3395 26.5148 26.0647 28.2181C24.7899 29.9215 22.9968 31.1652 20.9548 31.7625C18.9127 32.3598 16.7321 32.2785 14.7402 31.5306C12.7484 30.7828 11.053 29.4089 9.90861 27.6153L8.13666 28.1604C9.14041 29.8922 10.5748 31.3352 12.3007 32.3491C14.0266 33.3631 15.9853 33.9136 17.9867 33.9473C19.9881 33.981 21.9643 33.4967 23.7233 32.5414C25.4823 31.5861 26.9645 30.1923 28.026 28.4953L28.0247 22.3162Z" fill="#00C3F0"/>
<path d="M19.0765 41.106H10.1289C10.0115 41.106 9.89511 41.0828 9.78656 41.0378C9.67802 40.9929 9.57939 40.927 9.49631 40.8439C9.41323 40.7608 9.34733 40.6622 9.30236 40.5536C9.2574 40.4451 9.23426 40.3288 9.23426 40.2113V34.8425L4.36908 29.9773C4.04264 30.4511 3.86709 31.0125 3.86548 31.5879V42C3.86548 42.47 3.95806 42.9355 4.13795 43.3697C4.31783 43.804 4.58149 44.1986 4.91387 44.531C5.24624 44.8634 5.64084 45.127 6.07511 45.3069C6.50938 45.4868 6.97483 45.5794 7.44489 45.5794H21.7605V43.7934C21.761 43.4406 21.6919 43.0912 21.5572 42.7652C21.4225 42.4391 21.2248 42.1429 20.9756 41.8933C20.7263 41.6437 20.4302 41.4457 20.1044 41.3106C19.7785 41.1755 19.4292 41.106 19.0765 41.106Z" fill="#D23939"/>
<path d="M26.2348 15.1581H25.6548L25.3401 8.89465H11.0238L10.709 15.1581H10.1291C9.77387 15.1581 9.4332 15.2992 9.18202 15.5504C8.93084 15.8016 8.78973 16.1422 8.78973 16.4975V18.2868C8.78973 18.6421 8.93084 18.9827 9.18202 19.2339C9.4332 19.4851 9.77387 19.6262 10.1291 19.6262H11.4249L11.5702 20.5349C11.6797 21.2184 12.0329 21.839 12.5647 22.2821L15.4376 24.6762C15.8236 24.9978 16.3101 25.1738 16.8124 25.1738H19.5521C20.0544 25.1738 20.5409 24.9977 20.9269 24.6762L23.7998 22.2821C24.3316 21.8391 24.6849 21.2184 24.7943 20.5349L24.9396 19.6262H26.2354C26.5906 19.6262 26.9313 19.4851 27.1825 19.2339C27.4337 18.9827 27.5748 18.6421 27.5748 18.2868V16.4975C27.5748 16.3215 27.5401 16.1473 27.4728 15.9848C27.4054 15.8222 27.3067 15.6745 27.1823 15.5502C27.0578 15.4258 26.9101 15.3271 26.7475 15.2599C26.5849 15.1926 26.4107 15.158 26.2348 15.1581Z" fill="white"/>
<path d="M27.1837 15.5512C27.0592 15.4265 26.9112 15.3275 26.7484 15.2601C26.5856 15.1926 26.411 15.158 26.2348 15.1581H25.6548L25.3401 8.89465H11.0238L10.709 15.1581H10.1291C9.77387 15.1581 9.4332 15.2992 9.18202 15.5504C8.93084 15.8016 8.78973 16.1422 8.78973 16.4975V18.2868C8.78973 18.6421 8.93084 18.9827 9.18202 19.2339C9.4332 19.4851 9.77387 19.6262 10.1291 19.6262H11.4249L11.5702 20.5349C11.6797 21.2184 12.0329 21.839 12.5647 22.2821L15.4376 24.6762C15.8236 24.9978 16.3101 25.1738 16.8124 25.1738H17.9435L16.714 21.4859C16.5011 20.8471 16.3926 20.1783 16.3925 19.505V14.6525C16.3959 14.4246 16.4849 14.2063 16.6419 14.041C16.7988 13.8758 17.0123 13.7756 17.2397 13.7605C17.6884 13.722 18.1278 13.61 18.5402 13.429C19.1039 13.6736 19.7118 13.7998 20.3262 13.7998C20.9407 13.7998 21.5486 13.6736 22.1122 13.429L22.3614 14.9204C22.4764 15.6097 22.8322 16.2358 23.3655 16.6874C23.8988 17.139 24.575 17.3868 25.2738 17.3868H26.8616C27.1064 17.3825 27.3487 17.3355 27.5775 17.2482V16.4921C27.5754 16.1388 27.4339 15.8006 27.1837 15.5512Z" fill="white"/>
<path d="M28.9187 8.71535C28.9175 8.24442 28.7612 7.787 28.474 7.41381C28.1867 7.04063 27.7845 6.77245 27.3296 6.65074C27.4613 6.32515 27.511 5.97218 27.4742 5.62289C27.4375 5.2736 27.3154 4.93869 27.1188 4.64765C26.9223 4.3566 26.6572 4.11834 26.3468 3.95382C26.0365 3.7893 25.6906 3.70357 25.3393 3.70417C25.2958 3.70417 25.255 3.71422 25.2121 3.7169C25.0671 3.29624 24.7947 2.93115 24.4328 2.67231C24.0708 2.41346 23.6373 2.2737 23.1924 2.27241C22.9691 2.27383 22.7477 2.31184 22.5368 2.38492C22.243 2.0527 21.8647 1.80629 21.4421 1.67186C21.0195 1.53744 20.5683 1.52003 20.1366 1.62149C19.6093 1.12007 18.9095 0.840454 18.1819 0.840454C17.4542 0.840454 16.7544 1.12007 16.2271 1.62149C15.8192 1.52587 15.3937 1.5357 14.9906 1.65005C14.5876 1.7644 14.2203 1.97951 13.9234 2.27509C13.9107 2.27509 13.8993 2.27509 13.8866 2.27509C13.4416 2.27638 13.0081 2.41614 12.6462 2.67498C12.2842 2.93383 12.0119 3.29891 11.8668 3.71958C11.824 3.71958 11.7831 3.70685 11.7396 3.70685C11.3884 3.70625 11.0424 3.79198 10.7321 3.9565C10.4218 4.12102 10.1567 4.35928 9.96008 4.65033C9.76349 4.94137 9.64145 5.27628 9.6047 5.62557C9.56795 5.97486 9.61761 6.32783 9.74932 6.65342C9.39472 6.74651 9.07015 6.92957 8.80704 7.18487C8.54394 7.44017 8.35119 7.75908 8.24747 8.11072C8.14375 8.46236 8.13257 8.83481 8.215 9.19204C8.29744 9.54927 8.4707 9.87916 8.71802 10.1498C8.50196 10.3852 8.3419 10.6664 8.24981 10.9724C8.15772 11.2783 8.13598 11.6012 8.18621 11.9167C8.23645 12.2323 8.35735 12.5324 8.53989 12.7947C8.72244 13.0569 8.96189 13.2745 9.24037 13.4312C9.25531 13.8944 9.44966 14.3337 9.7824 14.6563C10.1151 14.979 10.5602 15.1597 11.0237 15.1603H11.8059C11.9753 15.1602 12.1391 15.1001 12.2684 14.9906C12.3976 14.8811 12.4838 14.7293 12.5117 14.5623L13.0113 11.5655C13.0649 11.5695 13.1164 11.5816 13.1707 11.5816C13.5253 11.5816 13.8745 11.4937 14.1868 11.3256C14.4991 11.1576 14.7648 10.9146 14.9601 10.6186C15.1552 10.9148 15.4209 11.1579 15.7332 11.3261C16.0455 11.4943 16.3947 11.5824 16.7494 11.5824C17.1042 11.5824 17.4533 11.4943 17.7656 11.3261C18.0779 11.1579 18.3436 10.9148 18.5388 10.6186C18.734 10.9148 18.9996 11.1579 19.312 11.3261C19.6243 11.4943 19.9734 11.5824 20.3282 11.5824C20.6829 11.5824 21.0321 11.4943 21.3444 11.3261C21.6567 11.1579 21.9223 10.9148 22.1175 10.6186C22.3128 10.9146 22.5785 11.1576 22.8908 11.3256C23.2031 11.4937 23.5522 11.5816 23.9069 11.5816C23.9618 11.5816 24.0127 11.5695 24.0663 11.5655L24.5659 14.5623C24.5938 14.7293 24.68 14.8811 24.8092 14.9906C24.9384 15.1001 25.1023 15.1602 25.2717 15.1603H26.232C26.7066 15.1603 27.1617 14.9718 27.4973 14.6362C27.8329 14.3006 28.0214 13.8455 28.0214 13.3709C28.0214 13.3522 28.0167 13.3354 28.016 13.3167C28.2626 13.1432 28.4693 12.9192 28.6224 12.6595C28.7756 12.3999 28.8715 12.1105 28.904 11.8108C28.9364 11.5111 28.9046 11.2079 28.8106 10.9215C28.7166 10.6351 28.5626 10.372 28.3589 10.1498C28.7177 9.75811 28.9174 9.24655 28.9187 8.71535Z" fill="#231F20"/>
<path d="M17.6602 10.0196C17.3252 9.90596 17.0237 9.71063 16.7832 9.45124C16.5426 9.19185 16.3705 8.87659 16.2824 8.53396C16.1943 8.19133 16.1931 7.83215 16.2787 7.4889C16.3643 7.14565 16.5342 6.82917 16.7729 6.56806C16.5256 6.29743 16.3523 5.96754 16.2699 5.61031C16.1874 5.25308 16.1986 4.88063 16.3023 4.52899C16.4061 4.17735 16.5988 3.85845 16.8619 3.60314C17.125 3.34784 17.4496 3.16478 17.8042 3.07169C17.6529 2.70034 17.6104 2.29363 17.6815 1.89902C17.7527 1.50441 17.9346 1.13816 18.206 0.843018H18.1872C17.4598 0.843923 16.7603 1.12333 16.2325 1.62386C15.8246 1.52824 15.399 1.53807 14.996 1.65242C14.593 1.76677 14.2257 1.98188 13.9288 2.27746C13.916 2.27746 13.9047 2.27746 13.8919 2.27746C13.447 2.27875 13.0135 2.41851 12.6515 2.67735C12.2896 2.9362 12.0172 3.30129 11.8722 3.72195C11.8293 3.72195 11.7885 3.70922 11.745 3.70922C11.3937 3.70862 11.0478 3.79435 10.7375 3.95887C10.4271 4.12338 10.162 4.36165 9.96545 4.6527C9.76886 4.94375 9.64682 5.27865 9.61007 5.62794C9.57332 5.97723 9.62298 6.3302 9.75469 6.65579C9.40009 6.74888 9.07553 6.93193 8.81242 7.18724C8.54931 7.44254 8.35656 7.76145 8.25284 8.11309C8.14912 8.46472 8.13794 8.83718 8.22038 9.19441C8.30281 9.55164 8.47607 9.88153 8.72339 10.1522C8.50733 10.3876 8.34728 10.6688 8.25519 10.9747C8.1631 11.2807 8.14135 11.6035 8.19158 11.9191C8.24181 12.2347 8.36272 12.5348 8.54526 12.797C8.72781 13.0593 8.96726 13.2769 9.24574 13.4336C9.26115 13.8955 9.45499 14.3335 9.78653 14.6556C10.1181 14.9776 10.5615 15.1587 11.0237 15.1607H11.8059C11.9753 15.1606 12.1392 15.1005 12.2684 14.991C12.3976 14.8815 12.4839 14.7297 12.5117 14.5626L13.0113 11.5658C13.0649 11.5699 13.1165 11.5819 13.1707 11.5819C13.5254 11.582 13.8745 11.4941 14.1868 11.326C14.4991 11.1579 14.7648 10.915 14.9601 10.6189C15.1553 10.915 15.4211 11.1579 15.7334 11.326C16.0457 11.4941 16.3948 11.582 16.7494 11.5819C17.2225 11.5786 17.6809 11.4168 18.0513 11.1225C17.7938 10.864 17.6476 10.515 17.6441 10.1502C17.6448 10.1033 17.6535 10.0624 17.6602 10.0196Z" fill="#313132"/>
<path d="M16.3918 41.106H19.0758C19.7877 41.106 20.4704 41.3888 20.9737 41.8921C21.4771 42.3955 21.7599 43.0782 21.7599 43.7901V45.5788H16.3911V41.1053L16.3918 41.106Z" fill="white"/>
<path d="M28.0241 22.3163C28.0268 24.4439 27.339 26.5149 26.0642 28.2182C24.7893 29.9216 22.9963 31.1653 20.9542 31.7626C18.9122 32.36 16.7315 32.2786 14.7397 31.5308C12.7479 30.7829 11.0524 29.409 9.90808 27.6154L7.25818 28.4304C8.26237 30.2314 9.69655 31.7559 11.4329 32.8681C13.1692 33.9803 15.1538 34.6456 17.2096 34.8047C19.2655 34.9639 21.3288 34.6118 23.2156 33.7801C25.1024 32.9483 26.7541 31.6626 28.0234 30.0376L28.0241 22.3163Z" fill="#D23939"/>
<path d="M50.3933 39.3167H23.55C23.1975 39.3167 22.8485 39.2473 22.5229 39.1124C22.1972 38.9775 21.9013 38.7798 21.6521 38.5305C21.4029 38.2813 21.2052 37.9854 21.0703 37.6598C20.9354 37.3341 20.866 36.9851 20.866 36.6326V20.527C20.866 19.8151 21.1488 19.1324 21.6521 18.629C22.1555 18.1257 22.8382 17.8429 23.55 17.8429H50.3933C50.7457 17.8429 51.0948 17.9123 51.4204 18.0472C51.746 18.1821 52.0419 18.3798 52.2912 18.629C52.5404 18.8783 52.7381 19.1742 52.873 19.4998C53.0079 19.8255 53.0773 20.1745 53.0773 20.527V36.6326C53.0773 36.9851 53.0079 37.3341 52.873 37.6598C52.7381 37.9854 52.5404 38.2813 52.2912 38.5305C52.0419 38.7798 51.746 38.9775 51.4204 39.1124C51.0948 39.2473 50.7457 39.3167 50.3933 39.3167Z" fill="#888888"/>
<path d="M42.3403 45.5801L40.7579 33.7114C40.7006 33.2816 40.4891 32.8871 40.1628 32.6015C39.8365 32.3158 39.4176 32.1584 38.9839 32.1584H34.9592C34.5255 32.1584 34.1066 32.3158 33.7803 32.6015C33.454 32.8871 33.2425 33.2816 33.1852 33.7114L31.6028 45.5801H42.3403Z" fill="#888888"/>
<path d="M36.9716 28.5794C37.9598 28.5794 38.7609 27.7782 38.7609 26.79C38.7609 25.8017 37.9598 25.0006 36.9716 25.0006C35.9833 25.0006 35.1822 25.8017 35.1822 26.79C35.1822 27.7782 35.9833 28.5794 36.9716 28.5794Z" fill="white"/>
<path d="M52.1833 49.1588H2.0762C1.83892 49.1588 1.61135 49.0646 1.44357 48.8968C1.27578 48.729 1.18152 48.5014 1.18152 48.2641V46.4748C1.18152 46.2375 1.27578 46.0099 1.44357 45.8421C1.61135 45.6743 1.83892 45.5801 2.0762 45.5801H52.1833C52.4205 45.5801 52.6481 45.6743 52.8159 45.8421C52.9837 46.0099 53.0779 46.2375 53.0779 46.4748V48.2641C53.0779 48.5014 52.9837 48.729 52.8159 48.8968C52.6481 49.0646 52.4205 49.1588 52.1833 49.1588Z" fill="white"/>
<path d="M50.3932 40.1551C51.3272 40.154 52.2226 39.7826 52.8831 39.1223C53.5435 38.4619 53.9151 37.5666 53.9164 36.6326V20.5263C53.9153 19.5922 53.5438 18.6967 52.8833 18.0362C52.2228 17.3757 51.3273 17.0042 50.3932 17.0031H28.3261V16.5893C28.3265 16.0665 28.1457 15.5598 27.8145 15.1555C28.0544 14.8624 28.2169 14.5138 28.2873 14.1416C28.9564 13.7517 29.4462 13.1151 29.6515 12.3684C29.8568 11.6216 29.7613 10.8242 29.3855 10.147C29.6289 9.70901 29.7568 9.21629 29.7572 8.71523C29.7563 8.20102 29.6226 7.69577 29.3689 7.24849C29.1152 6.80121 28.7502 6.4271 28.3094 6.16243C28.3205 6.05856 28.3261 5.95417 28.3261 5.84969C28.3251 5.12889 28.0639 4.43268 27.5904 3.88919C27.1169 3.34569 26.4631 2.99149 25.7492 2.89174C25.4859 2.44787 25.1118 2.07998 24.6636 1.82407C24.2154 1.56817 23.7085 1.43302 23.1924 1.43185C23.0547 1.43199 22.9173 1.44251 22.7812 1.46333C22.1892 0.981956 21.4501 0.718162 20.6871 0.715969C20.5845 0.715967 20.4819 0.721109 20.3797 0.731372C19.7452 0.256586 18.974 0 18.1815 0C17.389 0 16.6179 0.256586 15.9833 0.731372C15.8795 0.721327 15.7777 0.715969 15.6759 0.715969C14.9184 0.714519 14.1833 0.972341 13.5926 1.44658C13.1286 1.49383 12.6822 1.64918 12.2891 1.90015C11.896 2.15112 11.5672 2.49073 11.3291 2.89174C10.6152 2.99149 9.96138 3.34569 9.4879 3.88919C9.01442 4.43268 8.75315 5.12889 8.75218 5.84969C8.75215 5.95417 8.75774 6.05856 8.76892 6.16243C8.32827 6.42689 7.96338 6.80066 7.7096 7.24756C7.45583 7.69445 7.32177 8.1993 7.32042 8.71322C7.32075 9.21429 7.44866 9.70702 7.69209 10.145C7.31631 10.8222 7.22084 11.6196 7.42615 12.3664C7.63146 13.1131 8.1212 13.7497 8.79035 14.1396C8.82889 14.3474 8.89652 14.5487 8.99125 14.7376C8.69532 14.9469 8.45386 15.2241 8.28713 15.5459C8.12039 15.8677 8.03323 16.2248 8.03295 16.5873V18.019C8.03366 18.6209 8.27307 19.1979 8.69866 19.6235C9.12425 20.0491 9.70127 20.2885 10.3031 20.2892H10.6762L10.7371 20.6703C10.8784 21.5541 11.3352 22.3568 12.0229 22.9297L12.3282 23.1842V25.5515C12.3287 25.6784 12.2882 25.8021 12.2128 25.9041C12.1374 26.0062 12.0311 26.0812 11.9097 26.1181L5.6402 28.0507C4.88219 28.2812 4.2187 28.75 3.74821 29.3874C3.27772 30.0249 3.02532 30.797 3.02847 31.5893V42.0007C3.02774 42.9961 3.36489 43.9622 3.98477 44.741H2.07619C1.61613 44.7414 1.17503 44.9245 0.849904 45.25C0.524775 45.5755 0.34223 46.0168 0.342407 46.4768V48.2662C0.342939 48.7259 0.525776 49.1666 0.850809 49.4916C1.17584 49.8166 1.61653 49.9995 2.07619 50H52.1826C52.6426 49.9995 53.0836 49.8164 53.4087 49.4909C53.7338 49.1654 53.9164 48.7242 53.9164 48.2642V46.4768C53.9158 46.0172 53.733 45.5765 53.408 45.2515C53.0829 44.9264 52.6423 44.7436 52.1826 44.7431H43.075L42.4649 40.1551H50.3932ZM52.2388 20.5263V36.6326C52.2383 37.122 52.0437 37.5911 51.6977 37.9371C51.3517 38.2831 50.8825 38.4777 50.3932 38.4782H42.3404C42.307 38.4785 42.2737 38.4808 42.2406 38.4849L41.5897 33.601C41.5038 32.9704 41.1928 32.3922 40.7141 31.973C40.2353 31.5538 39.621 31.3219 38.9846 31.3201H34.9599C34.3235 31.3219 33.7093 31.5538 33.2305 31.973C32.7517 32.3922 32.4407 32.9704 32.3549 33.601L31.7039 38.4849C31.6708 38.4808 31.6375 38.4785 31.6042 38.4782H23.55C23.0608 38.4775 22.5918 38.2828 22.2459 37.9369C21.9001 37.5909 21.7056 37.1218 21.705 36.6326V20.5263C21.7056 20.037 21.9002 19.5678 22.2462 19.2218C22.5922 18.8758 23.0613 18.6812 23.5506 18.6807H50.3932C50.8825 18.6812 51.3517 18.8758 51.6977 19.2218C52.0437 19.5678 52.2383 20.037 52.2388 20.5263ZM28.8605 44.741C28.8605 44.7223 28.8605 44.7042 28.8605 44.6855V40.1551H31.4823L30.8709 44.741H28.8618H28.8605ZM26.2093 17.0031L26.3566 16.0817C26.4452 16.1336 26.5187 16.2077 26.5699 16.2967C26.6211 16.3857 26.6482 16.4866 26.6486 16.5893V17.0031H26.2093ZM9.34083 9.58581C9.12208 9.34856 9.00022 9.03793 8.99929 8.71523C9.00099 8.42877 9.09673 8.1508 9.27181 7.92406C9.44689 7.69732 9.6916 7.53437 9.96831 7.46026C10.0826 7.42927 10.1891 7.37442 10.2807 7.29933C10.3723 7.22423 10.447 7.1306 10.4998 7.02458C10.5526 6.91855 10.5824 6.80255 10.5872 6.6842C10.5919 6.56584 10.5716 6.44782 10.5275 6.33789C10.4642 6.18379 10.4313 6.01894 10.4304 5.85237C10.4306 5.5107 10.5644 5.18265 10.8031 4.93819C11.0418 4.69373 11.3666 4.55221 11.7081 4.54383C11.7436 4.54852 11.7798 4.55254 11.8159 4.55454C11.9983 4.56547 12.1793 4.51658 12.3313 4.41529C12.4834 4.314 12.5982 4.16586 12.6584 3.99336C12.7449 3.74164 12.9063 3.52235 13.1209 3.36486C13.3355 3.20736 13.593 3.11916 13.8591 3.11207H13.908C14.0193 3.11402 14.13 3.09384 14.2334 3.05268C14.3369 3.01152 14.4311 2.95022 14.5107 2.87232C14.7076 2.67493 14.9519 2.53138 15.2202 2.4554C15.4885 2.37942 15.7717 2.37356 16.0429 2.43837C16.1766 2.46837 16.3155 2.4652 16.4477 2.42913C16.5798 2.39306 16.7011 2.32519 16.801 2.23144C17.1728 1.87617 17.6673 1.6779 18.1815 1.6779C18.6958 1.6779 19.1903 1.87617 19.5621 2.23144C19.6619 2.32524 19.7832 2.39314 19.9154 2.42922C20.0475 2.46529 20.1865 2.46843 20.3201 2.43837C20.6072 2.3695 20.9076 2.38052 21.1887 2.47024C21.4699 2.55996 21.7212 2.72495 21.9153 2.94733C22.025 3.06815 22.1676 3.15436 22.3255 3.19539C22.4835 3.23643 22.65 3.23051 22.8046 3.17836C22.9293 3.13495 23.0603 3.11233 23.1924 3.11139C23.4631 3.11293 23.7266 3.19857 23.9466 3.35645C24.1665 3.51434 24.3319 3.73667 24.4199 3.99269C24.4799 4.16513 24.5947 4.31326 24.7466 4.41455C24.8985 4.51584 25.0794 4.56476 25.2617 4.55387C25.2958 4.55387 25.3286 4.54785 25.3695 4.54316C25.581 4.54703 25.7884 4.60239 25.9737 4.70444C26.159 4.80649 26.3166 4.95216 26.433 5.12885C26.5493 5.30553 26.6208 5.50791 26.6414 5.71846C26.6619 5.92901 26.6308 6.14139 26.5508 6.33722C26.5067 6.44715 26.4863 6.56517 26.4911 6.68353C26.4959 6.80188 26.5257 6.91788 26.5785 7.02391C26.6313 7.12993 26.706 7.22357 26.7976 7.29866C26.8892 7.37375 26.9956 7.4286 27.11 7.45959C27.3867 7.5337 27.6314 7.69665 27.8065 7.92339C27.9815 8.15013 28.0773 8.4281 28.079 8.71456C28.078 9.03725 27.9561 9.34785 27.7375 9.58514C27.5987 9.73924 27.5219 9.93928 27.5219 10.1467C27.5219 10.354 27.5987 10.5541 27.7375 10.7082C27.9562 10.9454 28.0781 11.2561 28.079 11.5788C28.0774 11.8496 27.9915 12.1133 27.8334 12.3332C27.6752 12.5532 27.4526 12.7185 27.1964 12.8063C27.0193 12.868 26.868 12.9873 26.7666 13.1451C26.6653 13.3029 26.6197 13.4901 26.6372 13.6769C26.6372 13.7023 26.6425 13.7284 26.6459 13.7539C26.6396 13.8795 26.5934 13.9998 26.514 14.0973C26.4346 14.1949 26.3262 14.2646 26.2046 14.2963C26.1778 14.3037 25.3755 14.3217 25.3755 14.3217L24.8933 11.4274C24.8588 11.221 24.7484 11.0349 24.5838 10.9056C24.4191 10.7764 24.2121 10.7134 24.0033 10.7289C23.9645 10.7289 23.9263 10.7363 23.8882 10.7417H23.8835C23.6712 10.7379 23.4631 10.6824 23.2771 10.5801C23.0911 10.4777 22.9328 10.3316 22.816 10.1544C22.7395 10.039 22.6356 9.94444 22.5136 9.87901C22.3916 9.81357 22.2553 9.77934 22.1169 9.77935C21.9784 9.77934 21.8422 9.81357 21.7202 9.87901C21.5982 9.94444 21.4943 10.039 21.4177 10.1544C21.2989 10.3351 21.137 10.4834 20.9467 10.5861C20.7563 10.6887 20.5434 10.7425 20.3272 10.7425C20.1109 10.7425 19.898 10.6887 19.7077 10.5861C19.5173 10.4834 19.3554 10.3351 19.2366 10.1544C19.16 10.039 19.0561 9.94444 18.9342 9.87901C18.8122 9.81357 18.6759 9.77934 18.5375 9.77935C18.399 9.77934 18.2628 9.81357 18.1408 9.87901C18.0188 9.94444 17.9149 10.039 17.8383 10.1544C17.7195 10.3351 17.5576 10.4834 17.3673 10.5861C17.1769 10.6887 16.964 10.7425 16.7478 10.7425C16.5315 10.7425 16.3186 10.6887 16.1282 10.5861C15.9379 10.4834 15.776 10.3351 15.6572 10.1544C15.5806 10.039 15.4767 9.94444 15.3547 9.87901C15.2328 9.81357 15.0965 9.77934 14.9581 9.77935C14.8196 9.77934 14.6833 9.81357 14.5614 9.87901C14.4394 9.94444 14.3355 10.039 14.2589 10.1544C14.142 10.3316 13.9838 10.4777 13.7978 10.58C13.6118 10.6823 13.4037 10.7378 13.1915 10.7417H13.1868C13.1486 10.7363 13.1104 10.7316 13.0716 10.7289C12.8628 10.7134 12.6558 10.7764 12.4912 10.9056C12.3265 11.0349 12.2161 11.221 12.1816 11.4274L11.6994 14.3217C11.6994 14.3217 10.8958 14.3037 10.8704 14.2963C10.7487 14.2646 10.6403 14.1949 10.5609 14.0973C10.4816 13.9998 10.4354 13.8795 10.429 13.7539C10.4324 13.7284 10.4357 13.703 10.4378 13.6775C10.4552 13.4908 10.4097 13.3036 10.3083 13.1458C10.207 12.988 10.0557 12.8687 9.87857 12.8069C9.62243 12.719 9.39996 12.5537 9.24194 12.3338C9.08393 12.1138 8.9982 11.8502 8.99661 11.5794C8.99761 11.2567 9.11946 10.9461 9.33815 10.7089C9.47743 10.5552 9.5548 10.3553 9.55529 10.1478C9.55579 9.94042 9.47938 9.74018 9.34083 9.58581ZM10.3078 18.6137C10.1512 18.6128 10.0012 18.55 9.89068 18.439C9.78016 18.3279 9.71803 18.1777 9.71785 18.021V16.5893C9.71826 16.4866 9.7454 16.3858 9.79659 16.2968C9.84779 16.2078 9.92128 16.1336 10.0098 16.0817L10.415 18.6137H10.3078ZM11.6927 15.9966H11.8066C12.1748 15.9975 12.5314 15.8672 12.8124 15.6292C13.0934 15.3911 13.2805 15.0608 13.3401 14.6974L13.7285 12.365C14.1755 12.2804 14.597 12.0944 14.9607 11.8212C15.477 12.2082 16.1049 12.4174 16.7501 12.4174C17.3953 12.4174 18.0232 12.2082 18.5395 11.8212C19.0558 12.2082 19.6836 12.4174 20.3288 12.4174C20.9741 12.4174 21.6019 12.2082 22.1182 11.8212C22.4819 12.0946 22.9034 12.2808 23.3504 12.3656L23.7388 14.6981C23.7821 14.9605 23.8921 15.2073 24.0585 15.4148C24.2248 15.6223 24.4417 15.7835 24.6884 15.8828L24.509 17.0031H23.55C22.6159 17.0042 21.7204 17.3757 21.0599 18.0362C20.3994 18.6967 20.0279 19.5922 20.0268 20.5263V24.249C19.8754 24.3086 19.7141 24.3395 19.5514 24.3401H16.8117C16.5056 24.3399 16.2092 24.2326 15.974 24.0367L13.101 21.6426C12.7246 21.3298 12.4743 20.891 12.3965 20.4077L11.6927 15.9966ZM12.4073 27.726C12.8722 27.5848 13.2793 27.2974 13.568 26.9065C13.8566 26.5157 14.0116 26.0421 14.0098 25.5562V24.5838L14.8998 25.3258C15.4367 25.7728 16.1131 26.0178 16.8117 26.0183H19.5514C19.7106 26.0181 19.8696 26.0052 20.0268 25.9794V31.377C18.4162 31.6421 16.764 31.4733 15.2402 30.888C13.7165 30.3027 12.3762 29.322 11.3572 28.0467L12.4073 27.726ZM4.70601 42.0034V31.5886C4.70446 31.1553 4.84266 30.7331 5.1001 30.3846C5.35754 30.0361 5.72049 29.7798 6.13509 29.6539L9.65088 28.5704C10.7997 30.2012 12.3755 31.484 14.2053 32.2782C16.0351 33.0724 18.0484 33.3472 20.0241 33.0726V36.6326C20.0252 37.5667 20.3967 38.4622 21.0572 39.1227C21.7177 39.7832 22.6132 40.1547 23.5473 40.1558H27.1823V44.6855C27.1823 44.7042 27.1823 44.723 27.1823 44.741H22.5997V43.7901C22.5986 42.856 22.2271 41.9605 21.5666 41.3C20.9061 40.6395 20.0106 40.268 19.0766 40.2669H10.129C10.1217 40.2669 10.1145 40.2655 10.1078 40.2627C10.101 40.2599 10.0949 40.2558 10.0897 40.2507C10.0846 40.2455 10.0805 40.2394 10.0777 40.2326C10.0749 40.2259 10.0734 40.2187 10.0734 40.2114V34.8426C10.0673 34.6242 9.9762 34.4169 9.81958 34.2646C9.66295 34.1124 9.45312 34.0272 9.23468 34.0272C9.01624 34.0272 8.80641 34.1124 8.64979 34.2646C8.49316 34.4169 8.40208 34.6242 8.39591 34.8426V40.2114C8.39645 40.671 8.57928 41.1117 8.90431 41.4368C9.22935 41.7618 9.67004 41.9446 10.1297 41.9452H15.5541V44.741H7.44431C6.71808 44.7395 6.02207 44.4502 5.50861 43.9366C4.99516 43.423 4.70608 42.727 4.70467 42.0007L4.70601 42.0034ZM17.2329 44.7437V41.9452H19.0786C19.5679 41.9457 20.037 42.1403 20.383 42.4863C20.729 42.8323 20.9237 43.3014 20.9242 43.7908V44.7417H17.2309L17.2329 44.7437ZM52.2388 46.4768V48.2662C52.2388 48.281 52.233 48.2951 52.2226 48.3055C52.2121 48.3159 52.198 48.3218 52.1833 48.3218H2.07619C2.06145 48.3218 2.04732 48.3159 2.03689 48.3055C2.02647 48.2951 2.02061 48.281 2.02061 48.2662V46.4768C2.02061 46.4621 2.02647 46.448 2.03689 46.4375C2.04732 46.4271 2.06145 46.4213 2.07619 46.4213H52.1826C52.1899 46.4212 52.1972 46.4225 52.2041 46.4253C52.2109 46.428 52.2171 46.4321 52.2223 46.4373C52.2276 46.4425 52.2317 46.4486 52.2345 46.4554C52.2374 46.4622 52.2388 46.4695 52.2388 46.4768ZM32.5611 44.741L34.017 33.8254C34.048 33.5973 34.1605 33.3881 34.3337 33.2365C34.5069 33.0848 34.729 33.001 34.9592 33.0003H38.9826C39.2124 33.0003 39.4344 33.0832 39.6078 33.2338C39.7813 33.3844 39.8946 33.5925 39.9269 33.82L41.3827 44.7357L32.5611 44.741Z" fill="black"/>
<path d="M36.9723 29.4182C37.4921 29.4182 38.0003 29.2641 38.4326 28.9752C38.8648 28.6864 39.2017 28.2759 39.4007 27.7956C39.5996 27.3153 39.6517 26.7868 39.5503 26.2769C39.4488 25.7671 39.1985 25.2987 38.8309 24.9311C38.4633 24.5635 37.995 24.3132 37.4851 24.2118C36.9752 24.1103 36.4467 24.1624 35.9664 24.3613C35.4861 24.5603 35.0756 24.8972 34.7868 25.3294C34.498 25.7617 34.3438 26.2699 34.3438 26.7897C34.3445 27.4866 34.6217 28.1548 35.1145 28.6476C35.6072 29.1403 36.2754 29.4175 36.9723 29.4182ZM36.9723 25.8395C37.1604 25.8395 37.3442 25.8952 37.5006 25.9997C37.657 26.1042 37.7789 26.2527 37.8508 26.4265C37.9228 26.6003 37.9416 26.7915 37.905 26.9759C37.8683 27.1604 37.7777 27.3298 37.6447 27.4628C37.5117 27.5958 37.3423 27.6864 37.1578 27.7231C36.9733 27.7598 36.7821 27.7409 36.6084 27.6689C36.4346 27.597 36.2861 27.4751 36.1816 27.3187C36.0771 27.1623 36.0213 26.9785 36.0213 26.7904C36.0213 26.5381 36.1215 26.2962 36.2998 26.1178C36.4781 25.9393 36.72 25.839 36.9723 25.8388V25.8395Z" fill="black"/>
</svg>
