<svg width="50" height="50" viewBox="0 0 50 50" fill="none" xmlns="http://www.w3.org/2000/svg">
<path d="M6.34643 15.8862H42.8402C43.0505 15.8864 43.2521 15.97 43.4009 16.1187C43.5496 16.2674 43.6332 16.4691 43.6333 16.6794V42.8598H30.94C30.437 43.3629 29.8399 43.762 29.1826 44.0343C28.5254 44.3066 27.8209 44.4467 27.1095 44.4467H22.0777C21.3663 44.4468 20.6618 44.3067 20.0046 44.0344C19.3473 43.7621 18.7502 43.363 18.2473 42.8598H5.55328V16.6794C5.55345 16.4691 5.63706 16.2674 5.78577 16.1187C5.93448 15.97 6.13612 15.8864 6.34643 15.8862Z" fill="white"/>
<path d="M48.3934 42.8599V46.0331C48.3935 46.4498 48.3114 46.8624 48.152 47.2475C47.9926 47.6325 47.7588 47.9823 47.4641 48.277C47.1695 48.5717 46.8196 48.8054 46.4346 48.9649C46.0496 49.1243 45.6369 49.2063 45.2202 49.2062H3.96449C3.12318 49.2059 2.31645 48.8714 1.72172 48.2763C1.127 47.6813 0.792989 46.8744 0.793152 46.0331V42.8599H18.2466C19.2631 43.8756 20.6412 44.4464 22.0783 44.4468H27.1083C28.5453 44.4464 29.9234 43.8756 30.9399 42.8599H48.3934Z" fill="white"/>
<path d="M46.8071 15.8862V42.8598H43.6339V16.68C43.6333 16.4698 43.5495 16.2684 43.4009 16.1198C43.2523 15.9712 43.0509 15.8875 42.8408 15.8868H39.667C40.0876 14.876 40.3448 13.8047 40.4288 12.713H43.6339C44.0507 12.7129 44.4633 12.795 44.8484 12.9544C45.2334 13.1138 45.5832 13.3476 45.8779 13.6422C46.1726 13.9369 46.4063 14.2868 46.5657 14.6718C46.7252 15.0568 46.8072 15.4695 46.8071 15.8862Z" fill="white"/>
<path d="M20.6266 15.8862H6.34701C6.13685 15.8868 5.93549 15.9706 5.78689 16.1192C5.63829 16.2678 5.55451 16.4692 5.55387 16.6793V42.8598H2.38007V15.8862C2.37999 15.4695 2.46201 15.0568 2.62145 14.6718C2.78088 14.2868 3.01462 13.9369 3.30929 13.6422C3.60396 13.3476 3.9538 13.1138 4.33883 12.9544C4.72385 12.795 5.13652 12.7129 5.55325 12.713H19.8655C19.9495 13.8044 20.2067 14.8756 20.6273 15.8862H20.6266Z" fill="white"/>
<path d="M40.4601 11.9192C40.4601 12.1891 40.4521 12.4504 40.4281 12.7123C40.273 14.7357 39.5238 16.6683 38.2744 18.2674C37.025 19.8666 35.3312 21.0612 33.4054 21.7013L33.3181 21.4393L30.1468 11.9192L37.4376 4.62842C38.3967 5.58474 39.1574 6.72111 39.6761 7.97228C40.1948 9.22344 40.4613 10.5648 40.4601 11.9192Z" fill="white"/>
<path d="M37.4375 4.62856L30.1467 11.9193L20.6266 7.95299C21.2778 6.38893 22.3045 5.00946 23.6157 3.93661C24.927 2.86377 26.4824 2.13061 28.1445 1.80199C29.8065 1.47338 31.5239 1.55943 33.1448 2.05254C34.7657 2.54565 36.2401 3.43062 37.4375 4.62917V4.62856Z" fill="#888888"/>
<path d="M33.32 21.4395L33.4073 21.7014C32.3577 22.0566 31.2567 22.236 30.1487 22.2326C28.4597 22.2342 26.7963 21.8203 25.305 21.0275C23.8137 20.2347 22.5403 19.0874 21.5969 17.6865C21.2132 17.1203 20.8881 16.5165 20.6266 15.8844C20.2061 14.8738 19.9489 13.8027 19.8649 12.7112C19.8409 12.4493 19.8329 12.1874 19.8329 11.9181C19.8333 10.557 20.1031 9.2094 20.6266 7.953L30.1468 11.9199L33.32 21.4395Z" fill="#D23939"/>
<path d="M19.8341 34.8645V38.0254H8.72705V19.0594H19.8341V34.8645Z" fill="#888888"/>
<path d="M4.76013 45.2399H6.34703V46.8268H4.76013V45.2399Z" fill="black"/>
<path d="M7.93329 45.2399H9.52019V46.8268H7.93329V45.2399Z" fill="black"/>
<path d="M11.1071 45.2399H12.694V46.8268H11.1071V45.2399Z" fill="black"/>
<path d="M38.08 45.2399H44.4269V46.8268H38.08V45.2399Z" fill="black"/>
<path d="M47.6002 42.0684V15.8861C47.5991 14.8344 47.1808 13.826 46.4371 13.0823C45.6934 12.3386 44.685 11.9203 43.6333 11.9192H41.2557C41.2666 10.4537 40.9874 9.0005 40.4341 7.6434C39.8808 6.28629 39.0644 5.0521 38.032 4.01195C36.9995 2.9718 35.7715 2.14625 34.4185 1.58289C33.0656 1.01953 31.6145 0.729492 30.1489 0.729492C28.6834 0.729492 27.2323 1.01953 25.8794 1.58289C24.5264 2.14625 23.2983 2.9718 22.2659 4.01195C21.2335 5.0521 20.4171 6.28629 19.8638 7.6434C19.3105 9.0005 19.0313 10.4537 19.0422 11.9192H5.55323C4.50148 11.9203 3.49313 12.3386 2.74943 13.0823C2.00573 13.826 1.58742 14.8344 1.58628 15.8861V42.0684H0V46.0354C0.00178984 47.0867 0.420387 48.0944 1.16402 48.8376C1.90764 49.5808 2.91562 49.9987 3.96694 49.9999H45.2226C46.274 49.9981 47.2817 49.5795 48.0248 48.8359C48.768 48.0922 49.186 47.0843 49.1871 46.0329V42.0684H47.6002ZM43.6339 13.5061C44.2649 13.5069 44.8698 13.7579 45.3159 14.2041C45.7621 14.6503 46.0131 15.2552 46.0139 15.8861V42.0684H44.427V16.6793C44.4267 16.2585 44.2594 15.8551 43.9619 15.5575C43.6644 15.26 43.2609 15.0927 42.8401 15.0924H40.786C40.9383 14.5725 41.0522 14.0421 41.1266 13.5055L43.6339 13.5061ZM21.089 9.00425L29.5123 12.5131L32.3916 21.1639C30.7479 21.5661 29.0266 21.5221 27.4056 21.0366C25.7845 20.5512 24.3225 19.6417 23.1704 18.4023C22.0184 17.1629 21.218 15.6384 20.8521 13.9862C20.4862 12.3341 20.568 10.6142 21.089 9.00425ZM33.8985 20.6659L31.0543 12.1338L37.4093 5.7788C38.3723 6.91338 39.0553 8.25828 39.4035 9.70517C39.7515 11.1521 39.7549 12.6605 39.4134 14.1089C39.0718 15.5574 38.3948 16.9053 37.4369 18.0442C36.479 19.1831 35.267 20.0811 33.8985 20.6659ZM30.148 2.39903C32.3983 2.39829 34.5754 3.19838 36.2896 4.6561L29.9623 10.9828L21.7038 7.54216C22.5056 5.99427 23.7169 4.69618 25.2057 3.78938C26.6944 2.88258 28.4036 2.40187 30.1468 2.39964L30.148 2.39903ZM3.17318 15.8861C3.174 15.2552 3.42501 14.6503 3.87118 14.2041C4.31735 13.7579 4.92225 13.5069 5.55323 13.5061H19.167C19.241 14.0428 19.3549 14.5732 19.5076 15.093H6.34698C5.92621 15.0933 5.52277 15.2606 5.22524 15.5581C4.9277 15.8557 4.76041 16.2591 4.76008 16.6799V42.0684H3.17318V15.8861ZM47.6002 46.0329C47.5994 46.6639 47.3484 47.2688 46.9022 47.715C46.4561 48.1611 45.8512 48.4122 45.2202 48.413H3.96694C3.33596 48.4122 2.73106 48.1611 2.2849 47.715C1.83873 47.2688 1.58771 46.6639 1.5869 46.0329V43.6535H17.9312C19.0684 44.6793 20.5468 45.245 22.0783 45.2404H27.1101C28.6416 45.245 30.1199 44.6793 31.2572 43.6535H41.2557V42.0684H30.6116L30.3792 42.3009C29.9506 42.7314 29.4409 43.0726 28.8795 43.3048C28.3182 43.537 27.7163 43.6555 27.1089 43.6535H22.077C21.4696 43.6555 20.8677 43.5369 20.3064 43.3047C19.745 43.0725 19.2353 42.7313 18.8067 42.3009L18.5749 42.0684H6.34637V16.6799H20.1268C21.024 18.5784 22.4422 20.1829 24.2161 21.3065C25.99 22.4302 28.0466 23.0267 30.1465 23.0267C32.2463 23.0267 34.3029 22.4302 36.0768 21.3065C37.8507 20.1829 39.2689 18.5784 40.1662 16.6799H42.8401V43.6535H47.6002V46.0329Z" fill="black"/>
<path d="M20.6266 18.2664H7.93329V39.2108H20.6266V18.2664ZM19.0397 37.6239H9.52019V19.8551H19.0404L19.0397 37.6239Z" fill="black"/>
<path d="M11.1071 21.4395H17.4541V23.0263H11.1071V21.4395Z" fill="black"/>
<path d="M11.1071 24.6133H17.4541V26.2002H11.1071V24.6133Z" fill="black"/>
<path d="M11.1071 27.6874H16.1531V29.2743H11.1071V27.6874Z" fill="black"/>
<path d="M11.1071 30.7616H17.4541V32.3485H11.1071V30.7616Z" fill="black"/>
<path d="M11.1071 33.8359H14.2803V35.4228H11.1071V33.8359Z" fill="black"/>
<path d="M22.2135 26.1995H23.8004V27.7864H22.2135V26.1995Z" fill="black"/>
<path d="M22.2135 29.8887H23.8004V31.4756H22.2135V29.8887Z" fill="#888888"/>
<path d="M22.2135 33.5776H23.8004V35.1645H22.2135V33.5776Z" fill="black"/>
<path d="M22.2135 37.2667H23.8004V38.8536H22.2135V37.2667Z" fill="#888888"/>
<path d="M25.3867 26.1995H41.2532V27.7864H25.3867V26.1995Z" fill="black"/>
<path d="M25.3867 29.8887H41.2532V31.4756H25.3867V29.8887Z" fill="#888888"/>
<path d="M25.3867 33.5776H41.2532V35.1645H25.3867V33.5776Z" fill="black"/>
<path d="M25.3867 37.2667H41.2532V38.8536H25.3867V37.2667Z" fill="#888888"/>
<path d="M30.1271 22.9471C36.2393 22.9471 41.1942 17.9922 41.1942 11.88C41.1942 5.76778 36.2393 0.812866 30.1271 0.812866C24.0149 0.812866 19.06 5.76778 19.06 11.88C19.06 17.9922 24.0149 22.9471 30.1271 22.9471Z" fill="#D23939"/>
<path d="M29.8636 5.27026V11.9592L33.377 14.932" stroke="black" stroke-width="1.5" stroke-linecap="round" stroke-linejoin="round"/>
<path d="M30.178 0C27.9088 0 25.6905 0.67291 23.8037 1.93364C21.9169 3.19436 20.4463 4.98628 19.5779 7.08279C18.7095 9.1793 18.4823 11.4862 18.925 13.7119C19.3677 15.9375 20.4604 17.9819 22.065 19.5865C23.6696 21.1911 25.714 22.2839 27.9397 22.7266C30.1653 23.1693 32.4723 22.9421 34.5688 22.0737C36.6653 21.2052 38.4572 19.7347 39.7179 17.8479C40.9786 15.961 41.6516 13.7428 41.6516 11.4735C41.648 8.43165 40.438 5.51539 38.2871 3.36447C36.1362 1.21354 33.2199 0.00357982 30.178 0V0ZM30.178 21.5126C28.1925 21.5126 26.2515 20.9238 24.6006 19.8207C22.9497 18.7176 21.663 17.1497 20.9031 15.3153C20.1433 13.4809 19.9445 11.4624 20.3319 9.51498C20.7192 7.56759 21.6753 5.77879 23.0793 4.3748C24.4833 2.97081 26.2721 2.01468 28.2195 1.62732C30.1669 1.23996 32.1854 1.43876 34.0198 2.1986C35.8542 2.95843 37.4221 4.24517 38.5252 5.89609C39.6284 7.54701 40.2171 9.48797 40.2171 11.4735C40.2139 14.135 39.1551 16.6866 37.2732 18.5686C35.3912 20.4506 32.8396 21.5093 30.178 21.5126Z" fill="black"/>
<path d="M29.8636 0.878296V2.63498" stroke="black"/>
<path d="M29.8636 20.202V21.9587" stroke="black"/>
<path d="M40.4037 11.4185L38.647 11.4185" stroke="black"/>
<path d="M21.0802 11.4185L19.3235 11.4185" stroke="black"/>
<path d="M37.3166 18.8715L36.0744 17.6293" stroke="black"/>
<path d="M23.6528 5.20764L22.4107 3.96548" stroke="black"/>
<path d="M22.4108 18.8715L23.6529 17.6293" stroke="black"/>
<path d="M36.0743 5.20764L37.3165 3.96548" stroke="black"/>
</svg>
