<svg width="154" height="12" viewBox="0 0 154 12" fill="none" xmlns="http://www.w3.org/2000/svg">
<g clip-path="url(#clip0)">
<path d="M0 6.798V1.35957C0 0.650215 0.591133 0.059082 1.30049 0.059082C2.00985 0.059082 2.60099 0.650215 2.60099 1.35957V6.73888C2.60099 8.63051 3.5468 9.57632 5.08374 9.57632C6.62069 9.57632 7.5665 8.63051 7.5665 6.798V1.35957C7.5665 0.650215 8.15764 0.059082 8.867 0.059082C9.57636 0.059082 10.1675 0.650215 10.1675 1.35957V6.73888C10.1675 10.2266 8.21675 11.9409 5.08374 11.9409C1.89163 11.9409 0 10.2266 0 6.798Z" fill="#1A1A1A"/>
<path d="M12.7094 1.47774C12.7094 0.768379 13.3005 0.177246 14.0098 0.177246H17.4975C20.2759 0.177246 21.931 1.83242 21.931 4.19695V4.25606C21.931 6.91616 19.8621 8.33488 17.2611 8.33488H15.3103V10.6403C15.3103 11.3497 14.7192 11.9408 14.0098 11.9408C13.3005 11.9408 12.7094 11.3497 12.7094 10.6403V1.47774ZM17.2611 6.02946C18.5616 6.02946 19.2709 5.26099 19.2709 4.25606C19.2709 3.13291 18.5025 2.48266 17.202 2.48266H15.2512V6.02946H17.2611Z" fill="#1A1A1A"/>
<path d="M23.5271 10.5812C23.2315 10.4039 23.0542 9.99012 23.0542 9.63544C23.0542 8.98519 23.5862 8.45317 24.2365 8.45317C24.5911 8.45317 24.8276 8.5714 24.9458 8.68962C25.8325 9.33987 26.7783 9.75366 27.9015 9.75366C28.9655 9.75366 29.5567 9.33987 29.5567 8.68962V8.63051C29.5567 7.98026 29.1429 7.62558 27.2512 7.15268C24.9458 6.56154 23.4089 5.9113 23.4089 3.60588V3.54677C23.4089 1.41869 25.1232 0.059082 27.4877 0.059082C28.9064 0.059082 30.1478 0.413762 31.1527 1.06401C31.4483 1.24135 31.7439 1.59603 31.7439 2.06893C31.7439 2.71918 31.2118 3.2512 30.5616 3.2512C30.3251 3.2512 30.0887 3.19209 29.9113 3.07386C29.0838 2.60095 28.2562 2.30539 27.4877 2.30539C26.4828 2.30539 26.0099 2.77829 26.0099 3.31031V3.36943C26.0099 4.1379 26.4828 4.37435 28.4926 4.90637C30.8572 5.49751 32.1576 6.3842 32.1576 8.39406V8.45317C32.1576 10.7586 30.3843 12.0591 27.9015 12.0591C26.3645 11.9409 24.8276 11.4679 23.5271 10.5812Z" fill="#1A1A1A"/>
<path d="M33.8128 6.02956C33.8128 2.71921 36.2956 0 39.9015 0C41.6158 0 42.798 0.472906 43.803 1.18227C44.0394 1.35961 44.2759 1.7734 44.2759 2.18719C44.2759 2.89655 43.6847 3.42857 43.0345 3.42857C42.6798 3.42857 42.4433 3.31034 42.266 3.19212C41.4975 2.6601 40.7882 2.36453 39.8424 2.36453C37.8916 2.36453 36.4729 3.96059 36.4729 5.97044V6.02956C36.4729 8.03941 37.8325 9.69458 39.8424 9.69458C40.9064 9.69458 41.6158 9.3399 42.3842 8.80788C42.5616 8.63054 42.8571 8.51231 43.1527 8.51231C43.803 8.51231 44.335 9.04433 44.335 9.69458C44.335 10.1084 44.1576 10.4039 43.9212 10.5813C42.8571 11.468 41.6749 12.0591 39.7833 12.0591C36.3547 12 33.8128 9.3399 33.8128 6.02956Z" fill="#1A1A1A"/>
<path d="M51.7833 0.886819C51.7833 0.532139 52.0788 0.236572 52.4335 0.236572H56.0985C58.6995 0.236572 60.4138 1.65529 60.4138 3.9016V3.96071C60.4138 6.44347 58.3448 7.74396 55.8621 7.74396H53.0246V11.2316C53.0246 11.5863 52.7291 11.8819 52.3744 11.8819C52.0197 11.8819 51.7242 11.5863 51.7242 11.2316V0.886819H51.7833ZM55.9212 6.50258C57.8128 6.50258 59.1133 5.49766 59.1133 3.96071V3.9016C59.1133 2.24642 57.8719 1.35972 55.9803 1.35972H53.0246V6.50258H55.9212Z" fill="#1A1A1A"/>
<path d="M61.0641 10.9359L65.7931 0.650215C65.9705 0.295535 66.2069 0.059082 66.6207 0.059082H66.6798C67.0936 0.059082 67.3301 0.295535 67.5074 0.650215L72.2365 10.9359C72.2956 11.0542 72.2956 11.1724 72.2956 11.2906C72.2956 11.6453 72 11.9409 71.6453 11.9409C71.3498 11.9409 71.1133 11.7044 70.9951 11.4679L69.8128 8.80785H63.4286L62.2463 11.5271C62.1281 11.8226 61.8917 12 61.5961 12C61.2414 12 61.005 11.7635 61.005 11.4088C60.9458 11.1724 61.005 11.0542 61.0641 10.9359ZM69.2217 7.50736L66.5616 1.59603L63.9015 7.50736H69.2217Z" fill="#1A1A1A"/>
<path d="M76.3744 1.41884H73.005C72.6503 1.41884 72.4138 1.18239 72.4138 0.827705C72.4138 0.473025 72.7094 0.236572 73.005 0.236572H81.0444C81.399 0.236572 81.6355 0.532139 81.6355 0.827705C81.6355 1.18239 81.3399 1.41884 81.0444 1.41884H77.6749V11.2316C77.6749 11.5863 77.3793 11.8819 77.0247 11.8819C76.67 11.8819 76.3744 11.5863 76.3744 11.2316V1.41884Z" fill="#1A1A1A"/>
<path d="M84.0591 0.76841C84.0591 0.413731 84.3547 0.118164 84.7094 0.118164C85.064 0.118164 85.3596 0.413731 85.3596 0.76841V5.32013H92.0394V0.76841C92.0394 0.413731 92.335 0.118164 92.6897 0.118164C93.0443 0.118164 93.3399 0.413731 93.3399 0.76841V11.2315C93.3399 11.5861 93.0443 11.8817 92.6897 11.8817C92.335 11.8817 92.0394 11.5861 92.0394 11.2315V6.62063H85.3596V11.2315C85.3596 11.5861 85.064 11.8817 84.7094 11.8817C84.3547 11.8817 84.0591 11.5861 84.0591 11.2315V0.76841Z" fill="#1A1A1A"/>
<path d="M96.1774 10.4039C96 10.2857 95.9409 10.1083 95.9409 9.931C95.9409 9.57632 96.2365 9.28076 96.5912 9.28076C96.7685 9.28076 96.8867 9.33987 97.005 9.4581C98.069 10.4039 99.1921 10.8177 100.67 10.8177C102.207 10.8177 103.271 9.99012 103.271 8.86696V8.80785C103.271 7.74381 102.68 7.09356 100.256 6.62066C97.5961 6.02953 96.3547 5.20194 96.3547 3.2512V3.19209C96.3547 1.35957 97.9508 0.059082 100.138 0.059082C101.675 0.059082 102.798 0.413762 103.803 1.18223C103.921 1.30046 104.099 1.4778 104.099 1.71425C104.099 2.06893 103.803 2.3645 103.448 2.3645C103.271 2.3645 103.212 2.30539 103.094 2.24627C102.089 1.53691 101.202 1.24135 100.079 1.24135C98.601 1.24135 97.5961 2.06893 97.5961 3.13297V3.19209C97.5961 4.25613 98.1872 4.90637 100.729 5.43839C103.33 6.02953 104.512 6.91622 104.512 8.68962V8.74874C104.512 10.7586 102.857 12 100.552 12C98.8966 11.9409 97.4779 11.4088 96.1774 10.4039Z" fill="#1A1A1A"/>
<path d="M107.232 0.76841C107.232 0.413731 107.527 0.118164 107.882 0.118164C108.236 0.118164 108.532 0.413731 108.532 0.76841V5.32013H115.212V0.76841C115.212 0.413731 115.507 0.118164 115.862 0.118164C116.217 0.118164 116.512 0.413731 116.512 0.76841V11.2315C116.512 11.5861 116.217 11.8817 115.862 11.8817C115.507 11.8817 115.212 11.5861 115.212 11.2315V6.62063H108.532V11.2315C108.532 11.5861 108.236 11.8817 107.882 11.8817C107.527 11.8817 107.232 11.5861 107.232 11.2315V0.76841Z" fill="#1A1A1A"/>
<path d="M119.054 10.9359L123.783 0.650215C123.961 0.295535 124.197 0.059082 124.611 0.059082H124.67C125.084 0.059082 125.32 0.295535 125.498 0.650215L130.227 10.9359C130.286 11.0542 130.286 11.1724 130.286 11.2906C130.286 11.6453 129.99 11.9409 129.635 11.9409C129.34 11.9409 129.103 11.7044 128.985 11.4679L127.803 8.80785H121.419L120.236 11.5271C120.118 11.8226 119.882 12 119.586 12C119.232 12 118.995 11.7635 118.995 11.4088C118.995 11.1724 118.995 11.0542 119.054 10.9359ZM127.271 7.50736L124.611 1.59603L121.951 7.50736H127.271Z" fill="#1A1A1A"/>
<path d="M132.768 0.76841C132.768 0.413731 133.064 0.118164 133.419 0.118164C133.773 0.118164 134.069 0.413731 134.069 0.76841V10.5812H140.099C140.453 10.5812 140.69 10.8768 140.69 11.1724C140.69 11.527 140.453 11.7635 140.099 11.7635H133.419C133.064 11.7635 132.768 11.4679 132.768 11.1132V0.76841Z" fill="#1A1A1A"/>
<path d="M142.286 10.9359L147.015 0.650215C147.192 0.295535 147.429 0.059082 147.842 0.059082H147.901C148.315 0.059082 148.552 0.295535 148.729 0.650215L153.458 10.9359C153.517 11.0542 153.517 11.1724 153.517 11.2906C153.517 11.6453 153.222 11.9409 152.867 11.9409C152.571 11.9409 152.335 11.7044 152.217 11.4679L151.035 8.80785H144.65L143.468 11.5271C143.35 11.8226 143.113 12 142.818 12C142.463 12 142.227 11.7635 142.227 11.4088C142.227 11.1724 142.227 11.0542 142.286 10.9359ZM150.502 7.50736L147.842 1.59603L145.182 7.50736H150.502Z" fill="#1A1A1A"/>
</g>
<defs>
<clipPath id="clip0">
<rect width="153.458" height="12" fill="white"/>
</clipPath>
</defs>
</svg>
